<svg width="82" height="52" viewBox="0 0 82 52" fill="none" xmlns="http://www.w3.org/2000/svg">
<path fill-rule="evenodd" clip-rule="evenodd" d="M63.6951 7.72798C59.9288 8.08318 55.7172 8.12478 51.2369 8.03678C51.2291 5.83518 51.0119 4.17438 50.1918 2.76478C49.7294 1.97118 49.2108 1.42398 48.2938 1.09758C47.622 0.878377 47.1362 1.03998 46.9691 1.46718C46.6832 2.19038 47.0112 5.08798 47.2096 6.01438C47.294 6.40958 47.4096 6.73918 47.5736 6.88478C47.672 6.97278 47.7923 7.04478 47.9345 7.10078C48.5484 7.33918 49.2529 7.13758 49.8216 7.61598C49.959 7.73278 50.0356 7.86398 50.0731 8.01118C40.3549 7.77758 29.4682 7.01758 19.161 7.55038C12.3797 7.55038 8.02746 7.71038 3.85961 14.5072C-0.208261 21.1408 -0.0801632 33.376 5.17339 39.3472C9.73959 44.5376 13.0967 44.208 19.161 44.208C30.1524 45.0784 40.1783 44.4016 50.0434 44.0816C49.9997 44.192 49.9294 44.2928 49.8216 44.384C49.2529 44.8624 48.5484 44.6608 47.9345 44.8992C47.7923 44.9552 47.672 45.0272 47.5736 45.1152C47.4096 45.2608 47.294 45.5904 47.2096 45.9856C47.0112 46.912 46.6832 49.8096 46.9691 50.5328C47.1362 50.96 47.622 51.1216 48.2938 50.9024C49.2108 50.576 49.7294 50.0288 50.1918 49.2352C51.001 47.8432 51.2228 46.2064 51.2369 44.0448C55.297 43.9248 59.3336 43.8816 63.4046 44.0432C88.5742 45.0432 85.0015 5.71838 63.6951 7.72798ZM77.8921 18.8688C76.2331 14.3232 73.4227 11 68.905 9.65758C71.3747 13.0256 75.1114 17.1984 77.8921 18.8688ZM78.5451 33.1312C76.8861 37.6768 74.0757 41.0016 69.5579 42.3424C72.0277 38.9744 75.7644 34.8016 78.5451 33.1312ZM20.3795 12.3664L24.1506 13.7168C22.8446 22.3232 22.9446 31.2752 24.174 38.4144L20.6122 39.632C16.0898 30.0032 15.5977 22.4528 20.3795 12.3664ZM25.7111 42.008C31.0381 42.9456 39.2364 42.776 44.5524 41.6896C37.1118 39.6672 32.9127 40.128 25.7111 42.008ZM43.7166 12.1888L51.09 10.5344C60.0694 17.7936 59.4492 34.2752 51.09 41.4656L43.7166 39.3968C45.9615 30.184 45.7803 21.1264 43.7166 12.1888ZM25.7111 9.99199C31.0381 9.05438 39.2364 9.22398 44.5524 10.3104C37.1118 12.3312 32.9127 11.872 25.7111 9.99199Z" fill="black" stroke="black" stroke-width="0.5" stroke-miterlimit="22.926"/>
</svg>
