<svg width="55" height="42" viewBox="0 0 55 42" fill="none" xmlns="http://www.w3.org/2000/svg">
<path d="M4.56368 24.8378C2.04466 24.8378 0 22.9773 0 20.689C0 18.3955 2.04466 16.5402 4.56368 16.5402C7.08465 16.5402 9.12735 18.3961 9.12735 20.689C9.12735 22.9773 7.0879 24.8378 4.56368 24.8378ZM36.0572 11.5616C36.0572 12.475 36.8736 13.2207 37.8829 13.2207C45.3064 13.2207 51.3492 18.7118 51.3492 25.4586C51.3492 32.2096 45.3097 37.6995 37.8829 37.6995C30.4575 37.6995 24.42 32.2096 24.42 25.4586C24.42 24.5458 23.6016 23.7988 22.5942 23.7988C21.5856 23.7988 20.7685 24.5458 20.7685 25.4586C20.7685 34.0429 28.4454 41.0184 37.8829 41.0184C47.3205 41.0184 55.0006 34.0393 55.0006 25.458C55.0006 16.8785 47.3211 9.90179 37.8829 9.90179C36.8665 9.90239 36.0572 10.641 36.0572 11.5616ZM28.8696 25.4586C28.8696 25.0013 28.4591 24.6287 27.9568 24.6287C27.4544 24.6287 27.0445 25.0007 27.0445 25.4586C27.0445 30.8922 31.9119 35.3141 37.8836 35.3141C43.856 35.3141 48.7266 30.8922 48.7266 25.4586C48.7266 20.0262 43.8632 15.6073 37.8836 15.6073C37.3773 15.6073 36.9714 15.9763 36.9714 16.4372C36.9714 16.8998 37.3773 17.2664 37.8836 17.2664C42.8532 17.2664 46.9008 20.942 46.9008 25.4586C46.9008 29.9806 42.8578 33.6537 37.8836 33.6537C32.9094 33.6537 28.8696 29.9806 28.8696 25.4586ZM38.1325 1.15697C37.2262 1.56451 36.8665 2.56262 37.3083 3.38065L38.0654 4.75489L31.7105 8.11883C31.1508 8.41737 30.8087 8.96233 30.8087 9.55172V19.0293H11.862C10.8547 19.0293 10.037 19.7697 10.037 20.689C10.037 21.603 10.8547 22.3482 11.862 22.3482H32.6345C33.6366 22.3482 34.4602 21.603 34.4602 20.689V10.5048L41.38 6.84055C41.9579 6.53667 42.2863 5.97987 42.2863 5.40233C42.2863 5.15591 42.229 4.9018 42.0941 4.66367L40.5759 1.89504C40.129 1.07938 39.0304 0.747662 38.1325 1.15697Z" fill="black"/>
</svg>
