<svg width="55" height="50" viewBox="0 0 55 50" fill="none" xmlns="http://www.w3.org/2000/svg">
<g clip-path="url(#clip0_16_2)">
<path d="M15.4688 28.125C15.4688 26.8889 15.0655 25.6805 14.3101 24.6527C13.5547 23.6249 12.4809 22.8238 11.2247 22.3508C9.96846 21.8777 8.58613 21.7539 7.25251 21.9951C5.91889 22.2362 4.69388 22.8315 3.73239 23.7056C2.77091 24.5797 2.11613 25.6933 1.85085 26.9057C1.58558 28.1181 1.72173 29.3747 2.24208 30.5168C2.76243 31.6588 3.64362 32.6349 4.77421 33.3217C5.9048 34.0084 7.23401 34.375 8.59375 34.375C10.4165 34.3731 12.164 33.7141 13.4529 32.5424C14.7417 31.3707 15.4667 29.782 15.4688 28.125ZM5.15625 28.125C5.15625 27.5069 5.35786 26.9027 5.73558 26.3888C6.11329 25.8749 6.65016 25.4744 7.27828 25.2379C7.9064 25.0014 8.59757 24.9395 9.26438 25.06C9.93119 25.1806 10.5437 25.4783 11.0244 25.9153C11.5052 26.3523 11.8326 26.9092 11.9652 27.5153C12.0978 28.1215 12.0298 28.7499 11.7696 29.3209C11.5094 29.8919 11.0688 30.38 10.5035 30.7233C9.93823 31.0667 9.27363 31.25 8.59375 31.25C7.68239 31.2491 6.80864 30.9195 6.1642 30.3337C5.51977 29.7478 5.15728 28.9535 5.15625 28.125Z" fill="black"/>
<path d="M27.0026 15.4337C25.1872 16.9006 24.0315 18.8578 23.4034 21.5479L17.1875 23.9696V32.6052L36.831 35.1562H42.9688V29.6875H53.2812V20.3125H42.9688V12.5H37.8125C32.9815 12.5 29.4456 13.4596 27.0026 15.4337ZM39.5312 15.625V23.4375H49.8438V26.5625H39.5312V32.0312H37.0753L20.625 29.8948V26.0304L26.4627 23.7559L26.6172 22.9132C27.0558 20.5206 27.904 18.8865 29.2864 17.7694C31.0721 16.3265 33.861 15.625 37.8125 15.625H39.5312Z" fill="black"/>
</g>
<defs>
<clipPath id="clip0_16_2">
<rect width="50" height="55" fill="white" transform="matrix(0 -1 1 0 0 50)"/>
</clipPath>
</defs>
</svg>
